<svg width="760" height="146" viewBox="0 0 760 146" fill="none" xmlns="http://www.w3.org/2000/svg">
<g clip-path="url(#clip0_3658_1022)">
<path d="M0 59.4098L0.79 50.3598L17.36 46.3998L17.82 41.1198C18.36 34.9598 19.67 29.3298 21.75 24.2398C23.83 19.1498 26.57 14.8098 29.96 11.2198C33.36 7.63977 37.36 4.88977 42 2.92977C46.64 0.979766 51.84 0.00976562 57.63 0.00976562C60.77 0.00976562 64.23 0.359766 68 1.04977C71.78 1.73977 75.78 3.01977 80.02 4.90977L75.05 16.4198C71.16 14.9098 67.95 13.9498 65.41 13.5098C62.87 13.0598 60.59 12.8498 58.58 12.8498C55.94 12.8498 53.27 13.3498 50.53 14.3598C47.81 15.3698 45.31 16.8998 43.06 18.9798C40.8 21.0598 38.9 23.7898 37.34 27.1898C35.79 30.5898 34.81 34.6098 34.4 39.2698L25.24 143.94H8.82L16.21 59.4398H0V59.4098ZM67.9 46.3998L66.76 59.4098H39.42C41.12 55.7798 43.27 52.6898 45.88 50.1798C48.49 47.6598 52.06 46.4098 56.58 46.4098H67.9V46.3998Z" fill="white"/>
<path d="M85.0195 143.91L93.5495 46.4004H111.65L103.12 143.91H85.0195Z" fill="white"/>
<path d="M157.848 46.4001C159.678 48.5401 160.888 50.8301 161.498 53.2901C162.088 55.7401 162.578 58.4701 162.938 61.4901L162.638 64.8801L164.448 61.4901C167.378 56.7201 171.248 52.7801 176.038 49.7001C180.828 46.6201 185.808 45.0801 190.968 45.0801C193.488 45.0801 196.518 45.5801 200.078 46.5901L196.528 61.3001C194.558 60.8001 192.858 60.4901 191.418 60.3601C189.988 60.2301 188.708 60.1601 187.578 60.1601C184.688 60.1601 181.738 60.7601 178.748 61.9501C175.748 63.1501 173.008 65.0001 170.528 67.5201C168.038 70.0401 165.908 73.3001 164.108 77.3301C162.308 81.3501 161.168 86.1901 160.668 91.8501L156.118 143.91H139.328L144.968 79.4101C145.478 73.6301 145.738 67.7801 145.748 61.8801C145.768 55.9601 145.458 50.8201 144.838 46.4101H157.848V46.4001Z" fill="white"/>
<path d="M214.302 125.42C218.872 127.8 223.532 129.54 228.282 130.6C233.032 131.67 237.412 132.2 241.432 132.2C247.092 132.2 251.422 130.89 254.412 128.24C257.412 125.59 259.092 122.18 259.462 118.03C259.762 114.63 258.872 111.8 256.812 109.53C254.742 107.26 252.092 105.21 248.862 103.38C245.622 101.55 242.132 99.75 238.392 97.99C234.642 96.23 231.182 94.15 227.992 91.76C224.812 89.37 222.242 86.43 220.282 82.97C218.322 79.5 217.572 75.13 218.032 69.83C218.302 66.81 219.222 63.78 220.812 60.76C222.392 57.73 224.542 55.03 227.272 52.63C229.992 50.25 233.312 48.29 237.212 46.78C241.112 45.27 245.512 44.5 250.422 44.5C254.062 44.5 257.992 44.85 262.212 45.55C266.422 46.26 271.082 47.56 276.202 49.46L270.782 61.86C266.872 60.48 263.282 59.5 260.002 58.92C256.712 58.36 253.752 58.08 251.112 58.08C246.712 58.08 243.012 59.09 240.002 61.09C237.002 63.12 235.322 66.06 234.982 69.96C234.682 73.35 235.572 76.16 237.642 78.35C239.712 80.55 242.372 82.56 245.602 84.38C248.842 86.21 252.322 88.03 256.062 89.85C259.792 91.68 263.262 93.81 266.442 96.27C269.622 98.72 272.182 101.77 274.122 105.41C276.072 109.06 276.802 113.58 276.332 119C276.012 122.64 274.872 126.07 272.892 129.27C270.912 132.48 268.332 135.31 265.172 137.77C262.002 140.22 258.462 142.17 254.562 143.61C250.672 145.05 246.642 145.78 242.492 145.78C237.712 145.78 232.632 145.37 227.232 144.55C221.842 143.74 215.652 141.51 208.672 137.86L214.282 125.41L214.302 125.42Z" fill="white"/>
<path d="M426.999 46.4C429.719 49.8 431.409 53.16 432.059 56.49C432.709 59.81 432.869 63.38 432.539 67.14L425.819 143.91H407.719L414.169 70.16C414.479 66.65 414.579 62.9 414.489 58.93C414.399 54.98 414.039 50.81 413.419 46.4H426.999ZM474.649 72.99C475.039 68.59 474.429 65 472.859 62.24C471.279 59.47 468.659 58.09 465.009 58.09C463.499 58.09 462.169 58.21 461.019 58.46C459.869 58.71 458.459 59.03 456.789 59.4C453.059 60.29 449.729 60.35 446.779 59.6C443.829 58.83 441.149 57.08 438.759 54.32C445.759 50.42 451.579 47.81 456.229 46.49C460.869 45.17 464.879 44.5 468.279 44.5C471.929 44.5 475.339 44.98 478.529 45.92C481.709 46.86 484.429 48.53 486.679 50.92C488.919 53.3 490.599 56.44 491.699 60.35C492.809 64.25 493.109 69.08 492.599 74.86L486.559 143.89H468.449L474.659 72.98L474.649 72.99ZM535.189 72.99C535.569 68.59 534.939 65 533.299 62.24C531.659 59.47 528.819 58.09 524.789 58.09C523.289 58.09 521.889 58.25 520.599 58.56C519.319 58.88 517.779 59.22 515.979 59.6C512.249 60.48 508.849 60.54 505.779 59.78C502.699 59.03 499.969 57.26 497.559 54.5C504.699 50.47 510.689 47.8 515.519 46.49C520.349 45.17 524.469 44.5 527.859 44.5C531.629 44.5 535.139 44.98 538.389 45.92C541.639 46.86 544.449 48.53 546.809 50.92C549.179 53.3 550.949 56.44 552.119 60.35C553.289 64.25 553.619 69.08 553.109 74.86L547.069 143.89H528.969L535.169 72.98L535.189 72.99Z" fill="white"/>
<path d="M581.602 143.91L590.132 46.4004H608.242L599.712 143.91H581.602Z" fill="white"/>
<path d="M647.931 143.909H630.781L643.291 0.949219H660.441L647.931 143.909Z" fill="white"/>
<path d="M742.69 84.1198C743.38 80.4798 743.43 77.0898 742.82 73.9298C742.22 70.7798 741.11 68.0198 739.49 65.6298C737.87 63.2398 735.81 61.3898 733.29 60.0698C730.77 58.7398 727.99 58.0898 724.98 58.0898C717.06 58.0898 710.34 61.2298 704.82 67.5198C699.3 73.8098 696.04 82.7898 695.02 94.4898C694.53 100.15 694.83 105.27 695.94 109.86C697.05 114.45 698.8 118.4 701.22 121.74C703.63 125.08 706.58 127.66 710.06 129.47C713.54 131.3 717.43 132.2 721.7 132.2C725.97 132.2 730.26 131.76 734.17 130.89C738.08 130.01 742.86 128.19 748.51 125.42L752.14 137.87C745.82 141.01 739.8 143.12 734.04 144.19C728.29 145.26 723.16 145.79 718.62 145.79C711.71 145.79 705.54 144.5 700.11 141.92C694.67 139.34 690.17 135.76 686.62 131.17C683.06 126.59 680.49 121.15 678.9 114.86C677.31 108.58 676.84 101.72 677.49 94.2998C678.16 86.6298 679.84 79.7598 682.51 73.6498C685.18 67.5498 688.71 62.3298 693.12 57.9998C697.52 53.6598 702.66 50.3198 708.52 47.9998C714.38 45.6698 720.89 44.5098 728.06 44.5098C734.47 44.5098 740.07 45.9598 744.83 48.8498C749.61 51.7398 753.29 55.6198 755.89 60.4498C758.48 65.2998 759.84 70.8498 759.99 77.1398C760.13 83.4298 758.89 89.9598 756.29 96.7498H701.61C703.3 93.1098 705.45 90.0898 708.06 87.6998C710.65 85.3098 714.21 84.1098 718.74 84.1098H742.7L742.69 84.1198Z" fill="white"/>
<path d="M312.31 46.4004L294.56 50.9304L293.82 59.4104H311.17L306.93 107.88C305.87 119.95 307.79 129.32 312.67 135.98C317.56 142.65 325.15 145.97 335.46 145.97C338.48 145.97 341.33 145.69 344.02 145.13C346.71 144.56 350.51 143.46 355.44 141.83L352.33 129.95C348.98 130.96 346.15 131.67 343.85 132.11C341.55 132.56 339.14 132.77 336.63 132.77C331.97 132.77 328.45 130.6 326.07 126.27C323.68 121.93 322.78 116.5 323.35 109.95L330.53 27.9004C324.11 27.9604 320.24 28.0004 313.91 28.1104L312.31 46.4004Z" fill="white"/>
<path d="M340.451 55.6406C342.681 58.1606 346.001 59.4006 350.401 59.4006H361.151L362.291 46.3906H335.691C336.631 50.0306 338.221 53.1206 340.451 55.6406Z" fill="white"/>
<path d="M354.64 3.50977C274.09 3.50977 193.15 7.65977 112.2 15.9598C107.65 16.4198 104.05 18.0598 101.43 20.8298C98.8097 23.5998 96.6397 26.8998 94.9297 30.6798C171.01 22.3598 247.07 17.7198 322.85 16.7298C325.74 16.6898 328.63 16.6998 331.51 16.6698C338.85 16.5998 346.18 16.5198 353.51 16.5198C439.42 16.5198 524.92 21.2398 609.61 30.6798L610.75 17.6698C526.05 8.22977 440.56 3.50977 354.64 3.50977Z" fill="white"/>
</g>
<defs>
<clipPath id="clip0_3658_1022">
<rect width="760" height="145.97" fill="white"/>
</clipPath>
</defs>
</svg>
