<svg width="130" height="39" viewBox="0 0 130 39" fill="none" xmlns="http://www.w3.org/2000/svg">
<g clip-path="url(#clip0_2475_632)">
<path d="M104.716 32.3706H26.0703L32.3341 38.625L104.716 32.3706Z" fill="black"/>
<path d="M33.3613 7.06204V8.00113C32.0248 7.05513 30.4286 6.54355 28.7904 6.53613C23.279 6.53613 19.0938 11.5509 19.0938 17.7113C19.0938 23.8718 23.3166 28.8959 28.7904 28.8959C30.4286 28.8885 32.0248 28.3769 33.3613 27.4309V28.37H38.1955V7.06204H33.3613ZM28.7904 23.7685C26.0723 23.7685 24.0879 21.0921 24.0879 17.7207C24.0879 14.3494 26.0723 11.673 28.7904 11.673C31.5084 11.673 33.4271 14.3494 33.4271 17.7207C33.4271 21.0921 31.5179 23.7685 28.7904 23.7685Z" fill="black"/>
<path d="M72.1565 7.06201V19.5801C72.2501 20.6265 71.9257 21.6676 71.2537 22.4762C70.5821 23.2848 69.6175 23.7956 68.5703 23.8972C67.5227 23.9988 66.4776 23.683 65.6629 23.0186C64.8477 22.3542 64.3286 21.395 64.2185 20.3502C64.1905 20.0942 64.1905 19.836 64.2185 19.5801V7.06201H59.375V19.5801C59.375 24.7169 62.8926 28.8959 68.0372 28.8959C69.5053 28.8868 70.9378 28.4458 72.1565 27.6281V28.417H77.0283V7.06201H72.1565Z" fill="black"/>
<path d="M5.13517 28.3701V20.1155H8.71851L14.9541 28.3701H21.2932L13.7691 18.4157C15.3654 17.2857 16.5589 15.6764 17.1755 13.8221C17.7922 11.9678 17.7999 9.96527 17.1975 8.10629C16.5951 6.2473 15.414 4.62889 13.8263 3.48672C12.2387 2.34455 10.3273 1.7383 8.37052 1.75625H0V28.3701H5.13517ZM5.13517 6.771H8.43636C9.53264 6.71869 10.6048 7.10339 11.4171 7.84041C12.2293 8.57747 12.715 9.60647 12.7674 10.7011C12.8198 11.7957 12.4345 12.8663 11.6964 13.6773C10.9582 14.4883 9.92768 14.9733 8.8314 15.0256H5.13517V6.771Z" fill="black"/>
<path d="M90.0926 23.3362C89.6162 23.6643 89.0535 23.8441 88.4746 23.8527C88.1608 23.8406 87.8525 23.7668 87.5676 23.6357C87.2822 23.5045 87.0255 23.3184 86.8125 23.0882C86.5995 22.8579 86.434 22.5879 86.3252 22.2937C86.2167 21.9995 86.1672 21.6868 86.1799 21.3735C86.1799 21.3735 86.1799 21.289 86.1799 21.242V12.1234H90.3276V7.06173H86.1799V1.75586H81.2988V7.06173H78.75V12.1234H81.3081V21.3171C81.2238 23.2447 81.9098 25.1268 83.2149 26.5497C84.52 27.9725 86.3374 28.8197 88.268 28.905H88.5123C90.1667 28.8499 91.7818 28.3887 93.2147 27.5621L90.0926 23.3362Z" fill="black"/>
<path d="M50.2437 17.0539L58.5484 7.07138H51.7579L45.9456 14.4902V0H40.9609V28.3794H45.9456V19.627L53.0935 28.3794H59.884L50.2437 17.0539Z" fill="black"/>
<path d="M101.248 6.52686C95.6048 6.52686 91.6172 11.4477 91.6172 17.7208C91.6172 24.2945 96.6677 28.9148 101.728 28.9148C104.276 28.9148 107.558 28.0414 110.305 24.1442L106.026 21.6838C102.715 26.5483 97.2038 24.0785 96.564 19.2046H110.521C111.725 11.5604 106.759 6.52686 101.248 6.52686ZM105.471 14.9787H96.7804C97.7962 9.98272 104.558 9.69158 105.499 14.9787H105.471Z" fill="black"/>
<path d="M117.293 28.3699V15.8518C117.238 15.3292 117.287 14.8009 117.437 14.2973C117.588 13.7937 117.837 13.3249 118.17 12.9178C118.502 12.5107 118.913 12.1734 119.376 11.9254C119.841 11.6774 120.349 11.5235 120.873 11.4727C121.397 11.4219 121.926 11.4751 122.429 11.6293C122.932 11.7835 123.4 12.0356 123.805 12.3711C124.21 12.7066 124.544 13.1189 124.789 13.5841C125.034 14.0493 125.184 14.5583 125.231 15.0817C125.259 15.3377 125.259 15.5959 125.231 15.8518V28.3699H130.074V15.8518C130.074 10.7244 126.557 6.54541 121.412 6.54541C119.939 6.56499 118.505 7.02274 117.293 7.86013V7.06191H112.449V28.3699H117.293Z" fill="black"/>
</g>
<defs>
<clipPath id="clip0_2475_632">
<rect width="130" height="39" fill="white"/>
</clipPath>
</defs>
</svg>
